<mxfile host="app.diagrams.net" modified="2023-12-23T06:41:16.144Z" agent="Mozilla/5.0 (Windows NT 10.0; Win64; x64) AppleWebKit/537.36 (KHTML, like Gecko) Chrome/120.0.0.0 Safari/537.36 Edg/120.0.0.0" version="21.1.1" etag="5HxkvOaFJbNhNs8OtNsp" type="github">
  <diagram name="Trang-1" id="vC6B6OMwEDK0mBfG2y6a">
    <mxGraphModel>
      <root>
        <mxCell id="0" />
        <mxCell id="1" parent="0" />
      </root>
    </mxGraphModel>
  </diagram>
</mxfile>
